<mxfile host="Electron" modified="2024-05-27T15:19:30.519Z" agent="Mozilla/5.0 (X11; Linux x86_64) AppleWebKit/537.36 (KHTML, like Gecko) draw.io/24.4.8 Chrome/124.0.6367.230 Electron/30.0.8 Safari/537.36" etag="XfNArU4oYuxf6kANLFZV" version="24.3.1" type="device">
  <diagram name="Seite-1" id="MGm7fnUETViN0xCmJy7T">
    <mxGraphModel dx="1372" dy="1246" grid="1" gridSize="10" guides="1" tooltips="1" connect="1" arrows="1" fold="1" page="1" pageScale="1" pageWidth="827" pageHeight="1169" math="0" shadow="0">
      <root>
        <mxCell id="0" />
        <mxCell id="1" parent="0" />
        <mxCell id="K8ADEP-g-67X6jkUS-Ks-3" style="edgeStyle=orthogonalEdgeStyle;rounded=0;orthogonalLoop=1;jettySize=auto;html=1;" parent="1" source="K8ADEP-g-67X6jkUS-Ks-1" target="K8ADEP-g-67X6jkUS-Ks-2" edge="1">
          <mxGeometry relative="1" as="geometry" />
        </mxCell>
        <mxCell id="K8ADEP-g-67X6jkUS-Ks-1" value="Laptop&lt;br&gt;192.168.0.100/24" style="fontColor=#000000;verticalAlign=top;verticalLabelPosition=bottom;labelPosition=center;align=center;html=1;outlineConnect=0;fillColor=#647687;strokeColor=#314354;gradientDirection=north;strokeWidth=2;shape=mxgraph.networks.laptop;" parent="1" vertex="1">
          <mxGeometry x="80" y="190" width="100" height="55" as="geometry" />
        </mxCell>
        <mxCell id="K8ADEP-g-67X6jkUS-Ks-2" value="Switch" style="fontColor=#000000;verticalAlign=top;verticalLabelPosition=bottom;labelPosition=center;align=center;html=1;outlineConnect=0;fillColor=#647687;strokeColor=#314354;gradientDirection=north;strokeWidth=2;shape=mxgraph.networks.switch;" parent="1" vertex="1">
          <mxGeometry x="240" y="202.5" width="100" height="30" as="geometry" />
        </mxCell>
        <mxCell id="K8ADEP-g-67X6jkUS-Ks-7" style="edgeStyle=orthogonalEdgeStyle;rounded=0;orthogonalLoop=1;jettySize=auto;html=1;" parent="1" source="K8ADEP-g-67X6jkUS-Ks-4" target="K8ADEP-g-67X6jkUS-Ks-2" edge="1">
          <mxGeometry relative="1" as="geometry" />
        </mxCell>
        <mxCell id="K8ADEP-g-67X6jkUS-Ks-4" value="Webserver&lt;br&gt;192.168.0.221/24" style="fontColor=#000000;verticalAlign=top;verticalLabelPosition=bottom;labelPosition=center;align=center;html=1;outlineConnect=0;fillColor=#647687;strokeColor=#314354;gradientDirection=north;strokeWidth=2;shape=mxgraph.networks.server;" parent="1" vertex="1">
          <mxGeometry x="400" y="240" width="70" height="77.78" as="geometry" />
        </mxCell>
        <mxCell id="K8ADEP-g-67X6jkUS-Ks-5" value="Firewall&lt;br&gt;192.168.0.220/24" style="fontColor=#000000;verticalAlign=top;verticalLabelPosition=bottom;labelPosition=center;align=center;html=1;outlineConnect=0;fillColor=#647687;strokeColor=#314354;gradientDirection=north;strokeWidth=2;shape=mxgraph.networks.server;" parent="1" vertex="1">
          <mxGeometry x="400" y="120.00000000000003" width="70" height="77.78" as="geometry" />
        </mxCell>
        <mxCell id="K8ADEP-g-67X6jkUS-Ks-6" style="edgeStyle=orthogonalEdgeStyle;rounded=0;orthogonalLoop=1;jettySize=auto;html=1;entryX=0.5;entryY=0;entryDx=0;entryDy=0;entryPerimeter=0;" parent="1" source="K8ADEP-g-67X6jkUS-Ks-5" target="K8ADEP-g-67X6jkUS-Ks-2" edge="1">
          <mxGeometry relative="1" as="geometry" />
        </mxCell>
      </root>
    </mxGraphModel>
  </diagram>
</mxfile>
